<!-- Generator: Adobe Illustrator 19.1.0, SVG Export Plug-In  -->
<svg version="1.1"
	 xmlns="http://www.w3.org/2000/svg" xmlns:xlink="http://www.w3.org/1999/xlink" xmlns:a="http://ns.adobe.com/AdobeSVGViewerExtensions/3.0/"
	 x="0px" y="0px" width="1259.7px" height="216.6px" viewBox="0 0 1259.7 216.6" style="enable-background:new 0 0 1259.7 216.6;"
	 xml:space="preserve">
<style type="text/css">
	.st0{fill:#FFFFFF;}
	.st1{fill:none;}
	.st2{font-family:'Montserrat-Regular';}
	.st3{font-size:45.4888px;}
	.st4{letter-spacing:-1;}
	.st5{letter-spacing:-2;}
</style>
<defs>
</defs>
<g>
	<g>
		<g>
			<g>
				<path class="st0" d="M835.6,97.6v2h-2.7v7.1h-2.4v-7.1h-2.7v-2H835.6z"/>
				<path class="st0" d="M838.9,97.6l2.4,5.3l2.4-5.3h2.6v9.1h-2.1l0-5.7l-2.1,4.8h-1.6l-2.1-4.8v5.7h-2.1v-9.1H838.9z"/>
			</g>
			<g>
				<path class="st0" d="M269.1,129.2v31.6h-15.7v-5.5c-3.1,4-8.1,6.2-14.6,6.2c-10.4,0-16.6-6.3-16.6-15.1
					c0-9.2,6.5-14.5,18.6-14.7h12.6v-0.5c0-4.6-3.1-7.3-9.2-7.3c-4,0-9.3,1.3-14.5,3.9l-4.4-10.8c7.6-3.4,14.6-5.3,22.6-5.3
					C261.2,111.6,269,118.1,269.1,129.2z M253.4,144.4v-4.2h-9.5c-4.5,0-6.7,1.6-6.7,5c0,3.3,2.4,5.5,6.5,5.5
					C248.4,150.6,252.4,148,253.4,144.4z"/>
			</g>
			<g>
				<path class="st0" d="M338,158.7c-3.5,2.1-8.3,3.2-13.1,3.2c-9.4,0.1-16.2-5.5-16.2-15.5v-20.8v-10.6v-13.3h15.9v13.3h12.5v11.5
					h-12.5V144c0,3.6,1.6,5.2,4.4,5.1c1.6,0,3.7-0.6,6-1.6L338,158.7z"/>
			</g>
			<g>
				<path class="st0" d="M304.8,112.2v14.6c-8.9-0.9-14.8,3-15.6,9.8v24.7h-16v-48.5h16v8.1C292.6,115.3,298,112.2,304.8,112.2z"/>
			</g>
			<g>
				<path class="st0" d="M389.5,113.9v48.5h-16v-7.9c-3.3,5.6-8.6,8.5-15.5,8.6c-10.5,0-17.3-7.3-17.3-18.6v-30.7h16v26.1
					c0,5.5,3,8.8,7.8,8.8c5.6-0.1,9.1-4.6,9.1-10.9v-23.9H389.5z"/>
			</g>
			<g>
				<path class="st0" d="M191.7,101.8h15.9v13.3h12.5v11.6h-12.5V144c0,3.6,1.6,5.2,4.4,5.1c1.6,0,3.7-0.6,6-1.6l3,11.3
					c-3.5,2.1-8.3,3.2-13.1,3.2c-9.4,0.1-16.2-5.5-16.2-15.5V101.8z"/>
			</g>
			<g>
				<path class="st0" d="M446.8,138.5c0,14.8-8.8,24.6-22.2,24.6c-6.2,0-11.2-2.4-14.6-6.8v23.7h-16V114h16v6.3
					c3.4-4.4,8.2-6.8,14.3-6.8C437.7,113.5,446.8,123.4,446.8,138.5z M430.8,138.1c0-7.2-4.2-12.1-10.5-12.1
					c-6.1,0-10.3,4.9-10.3,12.1c0,7.2,4.2,12,10.3,12C426.5,150.2,430.8,145.3,430.8,138.1z"/>
			</g>
			<path class="st0" d="M145.3,154.1l6.4-10.4c5.6,3.7,11.8,5.6,16.9,5.6c3,0,4.4-0.9,4.4-2.6v-0.2c0-1.9-2.7-2.7-7.9-4.2
				c-9.7-2.5-17.4-5.8-17.4-15.7v-0.2c0-10.4,8.3-16.2,19.7-16.2c7.2,0,14.6,2.1,20.2,5.7l-5.9,10.9c-5.1-2.8-10.6-4.5-14.5-4.5
				c-2.6,0-4,1-4,2.4v0.2c0,1.9,2.8,2.8,8,4.4c9.7,2.7,17.4,6.1,17.4,15.6v0.2c0,10.8-8.1,16.4-20,16.4
				C160.3,161.3,152.1,159,145.3,154.1z"/>
			<g>
				<path class="st0" d="M564.3,141.1h-34.1c1.5,5.5,5.6,8.6,11.2,8.6c4.2,0,8.3-1.7,11.5-5l8.4,8.4c-5,5.6-12.3,8.7-21.4,8.7
					c-16.1,0-26-9.9-26-24.9c0-15.2,10.3-25.3,25.6-25.3C556.7,111.7,565.4,123.2,564.3,141.1z M548.7,132.4c0-5.6-3.6-9.4-9.1-9.4
					c-5.3,0-8.7,3.8-9.8,9.4H548.7z"/>
			</g>
			<g>
				<path class="st0" d="M617.1,141.1H583c1.5,5.5,5.6,8.6,11.2,8.6c4.2,0,8.3-1.7,11.5-5l8.4,8.4c-5,5.6-12.3,8.7-21.4,8.7
					c-16.1,0-26-9.9-26-24.9c0-15.2,10.3-25.3,25.6-25.3C609.5,111.7,618.2,123.2,617.1,141.1z M601.5,132.4c0-5.6-3.6-9.4-9.1-9.4
					c-5.3,0-8.7,3.8-9.8,9.4H601.5z"/>
			</g>
			<polygon class="st0" points="667.7,114.3 648.2,114.3 636.2,127.9 636.2,97.7 620,97.7 620,161.9 636.2,161.9 636.2,148.5
				636.2,144.3 648.7,161.2 666.8,161.2 648.7,136.3 			"/>
			<g>
				<path class="st0" d="M712.5,141.6h-34.1c1.5,5.5,5.6,8.6,11.2,8.6c4.2,0,8.3-1.7,11.5-5l8.4,8.4c-5,5.6-12.3,8.7-21.4,8.7
					c-16.1,0-26-9.9-26-24.9c0-15.2,10.3-25.3,25.6-25.3C704.9,112.2,713.6,123.8,712.5,141.6z M696.9,133c0-5.6-3.6-9.4-9.1-9.4
					c-5.3,0-8.7,3.8-9.8,9.4H696.9z"/>
			</g>
			<g>
				<path class="st0" d="M765.9,131.5v30.9h-16.1v-26.3c0-5.5-3.3-9-8.3-9c-5.4,0.1-9,3.8-9.6,9.3v26h-16.2v-49.1h16.2v8
					c3.4-5.6,9.1-8.6,16.2-8.6C758.8,112.7,765.9,120,765.9,131.5z"/>
			</g>
			<g>
				<path class="st0" d="M822.8,97.7v64.7h-16.2v-6.4c-3.4,4.5-8.3,7-14.5,7c-13.8,0-22.9-10.2-22.9-25.4c0-15,9-24.9,22.5-24.9
					c6.4,0,11.4,2.5,14.9,7V97.7H822.8z M806.6,138.1c0-7.4-4.3-12.3-10.5-12.3c-6.4,0-10.6,5-10.6,12.3s4.3,12.3,10.6,12.3
					C802.3,150.4,806.6,145.4,806.6,138.1z"/>
			</g>
			<path class="st0" d="M444.5,114h16.8l5.9,22.6l5.5-22.6h15.4l5.6,22.8l6.1-22.8h16.5l-14.5,47.3h-14.9l-6.6-25.5l-6.7,25.5h-14.8
				L444.5,114z"/>
		</g>
		<g>
			<g>
				<g>
					<g>
						<path class="st0" d="M641.6,199.1h-3.3v11.5h-2v-11.5H634v-0.9l2.3-0.7v-0.7c0-3.2,1.4-4.8,4.2-4.8c0.7,0,1.5,0.1,2.4,0.4
							l-0.5,1.6c-0.8-0.2-1.4-0.4-1.9-0.4c-0.7,0-1.3,0.2-1.7,0.7c-0.4,0.5-0.5,1.3-0.5,2.4v0.8h3.3V199.1z"/>
						<path class="st0" d="M654.3,204.1c0,2.1-0.5,3.8-1.6,5c-1.1,1.2-2.5,1.8-4.4,1.8c-1.2,0-2.2-0.3-3.1-0.8
							c-0.9-0.5-1.6-1.3-2.1-2.4c-0.5-1-0.7-2.2-0.7-3.6c0-2.1,0.5-3.8,1.6-5c1.1-1.2,2.5-1.8,4.4-1.8c1.8,0,3.3,0.6,4.3,1.8
							C653.8,200.4,654.3,202,654.3,204.1z M644.4,204.1c0,1.7,0.3,2.9,1,3.8c0.7,0.9,1.6,1.3,2.9,1.3s2.3-0.4,2.9-1.3
							c0.7-0.9,1-2.1,1-3.8c0-1.7-0.3-2.9-1-3.8c-0.7-0.9-1.7-1.3-3-1.3c-1.3,0-2.3,0.4-2.9,1.3
							C644.7,201.1,644.4,202.4,644.4,204.1z"/>
						<path class="st0" d="M662.8,197.3c0.6,0,1.1,0,1.6,0.1l-0.3,1.8c-0.5-0.1-1-0.2-1.4-0.2c-1.1,0-2,0.4-2.7,1.3
							c-0.7,0.9-1.1,1.9-1.1,3.2v7h-2v-13h1.6l0.2,2.4h0.1c0.5-0.8,1.1-1.5,1.7-2C661.3,197.6,662,197.3,662.8,197.3z"/>
						<path class="st0" d="M682.6,210.6H673v-17.4h9.7v1.8H675v5.6h7.2v1.8H675v6.4h7.7V210.6z"/>
						<path class="st0" d="M694,210.6v-8.4c0-1.1-0.2-1.9-0.7-2.4c-0.5-0.5-1.2-0.8-2.3-0.8c-1.4,0-2.4,0.4-3,1.1
							c-0.6,0.7-0.9,2-0.9,3.6v6.8h-2v-13h1.6l0.3,1.8h0.1c0.4-0.6,1-1.1,1.7-1.5c0.7-0.4,1.5-0.5,2.4-0.5c1.6,0,2.7,0.4,3.5,1.1
							c0.8,0.8,1.2,2,1.2,3.6v8.5H694z"/>
						<path class="st0" d="M703.4,209.2c0.3,0,0.7,0,1-0.1c0.3-0.1,0.6-0.1,0.8-0.2v1.5c-0.2,0.1-0.5,0.2-0.9,0.3
							c-0.4,0.1-0.8,0.1-1.1,0.1c-2.5,0-3.8-1.3-3.8-4v-7.7h-1.9v-0.9l1.9-0.8l0.8-2.8h1.1v3h3.8v1.5h-3.8v7.7
							c0,0.8,0.2,1.4,0.6,1.8C702.2,209,702.7,209.2,703.4,209.2z"/>
						<path class="st0" d="M713,197.3c0.6,0,1.1,0,1.6,0.1l-0.3,1.8c-0.5-0.1-1-0.2-1.4-0.2c-1.1,0-2,0.4-2.7,1.3
							c-0.7,0.9-1.1,1.9-1.1,3.2v7h-2v-13h1.6l0.2,2.4h0.1c0.5-0.8,1.1-1.5,1.7-2C711.5,197.6,712.2,197.3,713,197.3z"/>
						<path class="st0" d="M721.5,210.8c-1.9,0-3.4-0.6-4.6-1.8c-1.1-1.2-1.7-2.8-1.7-4.9c0-2.1,0.5-3.8,1.5-5
							c1-1.2,2.4-1.9,4.2-1.9c1.6,0,2.9,0.5,3.9,1.6c0.9,1.1,1.4,2.5,1.4,4.2v1.2h-9c0,1.5,0.4,2.7,1.2,3.5c0.7,0.8,1.8,1.2,3.1,1.2
							c1.4,0,2.8-0.3,4.2-0.9v1.8c-0.7,0.3-1.4,0.5-2,0.6C723.1,210.8,722.4,210.8,721.5,210.8z M721,199c-1,0-1.9,0.3-2.5,1
							c-0.6,0.7-1,1.6-1.1,2.8h6.8c0-1.2-0.3-2.2-0.8-2.9C722.8,199.3,722,199,721,199z"/>
						<path class="st0" d="M734.9,210.8c-0.8,0-1.6-0.2-2.3-0.5s-1.3-0.8-1.8-1.4h-0.1c0.1,0.8,0.1,1.5,0.1,2.2v5.4h-2v-18.9h1.6
							l0.3,1.8h0.1c0.5-0.7,1.1-1.2,1.8-1.5c0.7-0.3,1.4-0.5,2.3-0.5c1.7,0,3.1,0.6,4,1.8c0.9,1.2,1.4,2.8,1.4,5
							c0,2.1-0.5,3.8-1.4,5C737.9,210.2,736.6,210.8,734.9,210.8z M734.6,199c-1.3,0-2.3,0.4-2.9,1.1c-0.6,0.7-0.9,1.9-0.9,3.5v0.4
							c0,1.8,0.3,3.1,0.9,3.9c0.6,0.8,1.6,1.2,2.9,1.2c1.1,0,2-0.5,2.6-1.4c0.6-0.9,1-2.2,1-3.8c0-1.6-0.3-2.9-1-3.7
							C736.6,199.4,735.7,199,734.6,199z"/>
						<path class="st0" d="M748.8,197.3c0.6,0,1.1,0,1.6,0.1l-0.3,1.8c-0.5-0.1-1-0.2-1.4-0.2c-1.1,0-2,0.4-2.7,1.3
							c-0.7,0.9-1.1,1.9-1.1,3.2v7h-2v-13h1.6l0.2,2.4h0.1c0.5-0.8,1.1-1.5,1.7-2C747.2,197.6,748,197.3,748.8,197.3z"/>
						<path class="st0" d="M757.3,210.8c-1.9,0-3.4-0.6-4.6-1.8c-1.1-1.2-1.7-2.8-1.7-4.9c0-2.1,0.5-3.8,1.5-5
							c1-1.2,2.4-1.9,4.2-1.9c1.6,0,2.9,0.5,3.9,1.6c1,1.1,1.4,2.5,1.4,4.2v1.2h-9c0,1.5,0.4,2.7,1.2,3.5c0.7,0.8,1.8,1.2,3.1,1.2
							c1.4,0,2.8-0.3,4.2-0.9v1.8c-0.7,0.3-1.4,0.5-2,0.6C758.9,210.8,758.2,210.8,757.3,210.8z M756.8,199c-1,0-1.9,0.3-2.5,1
							c-0.6,0.7-1,1.6-1.1,2.8h6.8c0-1.2-0.3-2.2-0.8-2.9C758.6,199.3,757.8,199,756.8,199z"/>
						<path class="st0" d="M773.5,210.6v-8.4c0-1.1-0.2-1.9-0.7-2.4c-0.5-0.5-1.2-0.8-2.3-0.8c-1.4,0-2.4,0.4-3,1.1
							c-0.6,0.7-0.9,2-0.9,3.6v6.8h-2v-13h1.6l0.3,1.8h0.1c0.4-0.6,1-1.1,1.7-1.5c0.7-0.4,1.5-0.5,2.4-0.5c1.6,0,2.7,0.4,3.5,1.1
							c0.8,0.8,1.2,2,1.2,3.6v8.5H773.5z"/>
						<path class="st0" d="M784.2,210.8c-1.9,0-3.4-0.6-4.6-1.8c-1.1-1.2-1.7-2.8-1.7-4.9c0-2.1,0.5-3.8,1.5-5
							c1-1.2,2.4-1.9,4.2-1.9c1.6,0,2.9,0.5,3.9,1.6c0.9,1.1,1.4,2.5,1.4,4.2v1.2h-9c0,1.5,0.4,2.7,1.2,3.5c0.7,0.8,1.8,1.2,3.1,1.2
							c1.4,0,2.8-0.3,4.2-0.9v1.8c-0.7,0.3-1.4,0.5-2,0.6C785.8,210.8,785.1,210.8,784.2,210.8z M783.7,199c-1,0-1.9,0.3-2.5,1
							c-0.6,0.7-1,1.6-1.1,2.8h6.8c0-1.2-0.3-2.2-0.8-2.9C785.5,199.3,784.7,199,783.7,199z"/>
						<path class="st0" d="M793.3,197.6v8.4c0,1.1,0.2,1.9,0.7,2.4c0.5,0.5,1.2,0.8,2.3,0.8c1.4,0,2.4-0.4,3-1.1
							c0.6-0.7,0.9-2,0.9-3.6v-6.8h2v13h-1.6l-0.3-1.7h-0.1c-0.4,0.6-1,1.1-1.7,1.5c-0.7,0.3-1.5,0.5-2.5,0.5
							c-1.6,0-2.8-0.4-3.6-1.1c-0.8-0.8-1.2-2-1.2-3.6v-8.5H793.3z"/>
						<path class="st0" d="M811.4,197.3c0.6,0,1.1,0,1.6,0.1l-0.3,1.8c-0.5-0.1-1-0.2-1.4-0.2c-1.1,0-2,0.4-2.7,1.3
							c-0.7,0.9-1.1,1.9-1.1,3.2v7h-2v-13h1.6l0.2,2.4h0.1c0.5-0.8,1.1-1.5,1.7-2C809.8,197.6,810.6,197.3,811.4,197.3z"/>
						<path class="st0" d="M823.4,207c0,1.2-0.5,2.1-1.4,2.8c-0.9,0.7-2.2,1-3.8,1c-1.7,0-3.1-0.3-4-0.8v-1.8c0.6,0.3,1.3,0.6,2,0.7
							c0.7,0.2,1.4,0.3,2.1,0.3c1,0,1.8-0.2,2.4-0.5c0.6-0.3,0.8-0.8,0.8-1.5c0-0.5-0.2-0.9-0.7-1.3c-0.4-0.4-1.3-0.8-2.6-1.3
							c-1.2-0.5-2.1-0.8-2.6-1.2c-0.5-0.3-0.9-0.7-1.1-1.1c-0.2-0.4-0.4-0.9-0.4-1.5c0-1.1,0.4-1.9,1.3-2.5c0.9-0.6,2-0.9,3.5-0.9
							c1.4,0,2.8,0.3,4.1,0.9l-0.7,1.6c-1.3-0.5-2.5-0.8-3.6-0.8c-0.9,0-1.6,0.1-2.1,0.4c-0.5,0.3-0.7,0.7-0.7,1.2
							c0,0.3,0.1,0.6,0.3,0.9c0.2,0.2,0.5,0.5,0.9,0.7c0.4,0.2,1.2,0.5,2.3,1c1.5,0.6,2.6,1.1,3.1,1.7
							C823.1,205.5,823.4,206.2,823.4,207z"/>
					</g>
					<g>
						<path class="st0" d="M428.9,198.3c0,1.8-0.6,3.1-1.8,4.1c-1.2,0.9-2.9,1.4-5.1,1.4h-2v6.8h-2v-17.4h4.5
							C426.7,193.2,428.9,194.9,428.9,198.3z M419.9,202h1.8c1.8,0,3.1-0.3,3.9-0.9c0.8-0.6,1.2-1.5,1.2-2.8c0-1.1-0.4-2-1.1-2.6
							c-0.8-0.6-1.9-0.8-3.5-0.8h-2.3V202z"/>
						<path class="st0" d="M442.4,204.1c0,2.1-0.5,3.8-1.6,5c-1.1,1.2-2.5,1.8-4.4,1.8c-1.2,0-2.2-0.3-3.1-0.8
							c-0.9-0.5-1.6-1.3-2.1-2.4c-0.5-1-0.7-2.2-0.7-3.6c0-2.1,0.5-3.8,1.6-5c1.1-1.2,2.5-1.8,4.4-1.8c1.8,0,3.3,0.6,4.3,1.8
							C441.8,200.4,442.4,202,442.4,204.1z M432.4,204.1c0,1.7,0.3,2.9,1,3.8c0.7,0.9,1.6,1.3,2.9,1.3c1.3,0,2.3-0.4,2.9-1.3
							c0.7-0.9,1-2.1,1-3.8c0-1.7-0.3-2.9-1-3.8c-0.7-0.9-1.7-1.3-3-1.3c-1.3,0-2.3,0.4-2.9,1.3
							C432.8,201.1,432.4,202.4,432.4,204.1z"/>
						<path class="st0" d="M455.6,210.6l-2.4-7.6c-0.2-0.5-0.4-1.5-0.8-3.2h-0.1c-0.3,1.4-0.6,2.5-0.8,3.2l-2.5,7.6h-2.3l-3.5-13
							h2.1c0.8,3.3,1.5,5.8,1.9,7.5c0.4,1.7,0.7,2.9,0.8,3.5h0.1c0.1-0.5,0.2-1,0.4-1.8c0.2-0.7,0.4-1.3,0.5-1.7l2.4-7.5h2.1
							l2.3,7.5c0.4,1.4,0.7,2.5,0.9,3.4h0.1c0-0.3,0.1-0.7,0.3-1.3c0.1-0.6,1-3.8,2.5-9.6h2l-3.6,13H455.6z"/>
						<path class="st0" d="M468.5,210.8c-1.9,0-3.4-0.6-4.6-1.8c-1.1-1.2-1.7-2.8-1.7-4.9c0-2.1,0.5-3.8,1.5-5
							c1-1.2,2.4-1.9,4.2-1.9c1.6,0,2.9,0.5,3.9,1.6c0.9,1.1,1.4,2.5,1.4,4.2v1.2h-9c0,1.5,0.4,2.7,1.2,3.5c0.7,0.8,1.8,1.2,3.1,1.2
							c1.4,0,2.8-0.3,4.2-0.9v1.8c-0.7,0.3-1.4,0.5-2,0.6C470.2,210.8,469.4,210.8,468.5,210.8z M468,199c-1,0-1.9,0.3-2.5,1
							c-0.6,0.7-1,1.6-1.1,2.8h6.8c0-1.2-0.3-2.2-0.8-2.9C469.8,199.3,469,199,468,199z"/>
						<path class="st0" d="M481.8,197.3c0.6,0,1.1,0,1.6,0.1l-0.3,1.8c-0.5-0.1-1-0.2-1.4-0.2c-1.1,0-2,0.4-2.7,1.3
							c-0.7,0.9-1.1,1.9-1.1,3.2v7h-2v-13h1.6l0.2,2.4h0.1c0.5-0.8,1.1-1.5,1.7-2C480.2,197.6,480.9,197.3,481.8,197.3z"/>
						<path class="st0" d="M490.3,210.8c-1.9,0-3.4-0.6-4.6-1.8c-1.1-1.2-1.7-2.8-1.7-4.9c0-2.1,0.5-3.8,1.5-5
							c1-1.2,2.4-1.9,4.2-1.9c1.6,0,2.9,0.5,3.9,1.6c0.9,1.1,1.4,2.5,1.4,4.2v1.2h-9c0,1.5,0.4,2.7,1.2,3.5c0.7,0.8,1.8,1.2,3.1,1.2
							c1.4,0,2.8-0.3,4.2-0.9v1.8c-0.7,0.3-1.4,0.5-2,0.6C491.9,210.8,491.1,210.8,490.3,210.8z M489.7,199c-1,0-1.9,0.3-2.5,1
							c-0.6,0.7-1,1.6-1.1,2.8h6.8c0-1.2-0.3-2.2-0.8-2.9C491.5,199.3,490.8,199,489.7,199z"/>
						<path class="st0" d="M506.6,208.8h-0.1c-0.9,1.3-2.3,2-4.1,2c-1.7,0-3-0.6-4-1.7c-0.9-1.2-1.4-2.8-1.4-5c0-2.1,0.5-3.8,1.4-5
							c1-1.2,2.3-1.8,4-1.8c1.8,0,3.1,0.6,4.1,1.9h0.2l-0.1-0.9l0-0.9v-5.3h2v18.5h-1.6L506.6,208.8z M502.6,209.2
							c1.3,0,2.3-0.4,2.9-1.1c0.6-0.7,0.9-1.9,0.9-3.5v-0.4c0-1.8-0.3-3.2-0.9-3.9c-0.6-0.8-1.6-1.2-2.9-1.2c-1.2,0-2,0.4-2.7,1.3
							c-0.6,0.9-0.9,2.2-0.9,3.8c0,1.7,0.3,2.9,0.9,3.8C500.5,208.8,501.4,209.2,502.6,209.2z"/>
						<path class="st0" d="M524.5,197.4c1.7,0,3,0.6,4,1.8c0.9,1.2,1.4,2.8,1.4,5c0,2.1-0.5,3.8-1.4,5c-1,1.2-2.3,1.8-4,1.8
							c-0.8,0-1.6-0.2-2.3-0.5c-0.7-0.3-1.3-0.8-1.8-1.4h-0.1l-0.4,1.7h-1.4v-18.5h2v4.5c0,1,0,1.9-0.1,2.7h0.1
							C521.3,198,522.7,197.4,524.5,197.4z M524.2,199c-1.3,0-2.3,0.4-2.9,1.2c-0.6,0.8-0.9,2.1-0.9,3.9c0,1.8,0.3,3.1,0.9,3.9
							c0.6,0.8,1.6,1.2,2.9,1.2c1.2,0,2.1-0.4,2.7-1.3c0.6-0.9,0.9-2.2,0.9-3.8c0-1.7-0.3-3-0.9-3.8
							C526.4,199.4,525.4,199,524.2,199z"/>
						<path class="st0" d="M530.4,197.6h2.1l2.8,7.4c0.6,1.7,1,2.9,1.2,3.7h0.1c0.1-0.4,0.3-1.1,0.6-2.1c0.3-1,1.4-4,3.2-9h2.1
							l-5.6,14.8c-0.6,1.5-1.2,2.5-1.9,3.1c-0.7,0.6-1.6,0.9-2.7,0.9c-0.6,0-1.2-0.1-1.8-0.2v-1.6c0.4,0.1,0.9,0.1,1.5,0.1
							c1.4,0,2.3-0.8,2.9-2.3l0.7-1.9L530.4,197.6z"/>
					</g>
					<g>
						<path class="st0" d="M549.5,201.1c0-5.4,4.5-9.8,9.9-9.8c3,0,5.1,1.2,6.7,2.7l-1.9,1.9c-1.1-1.1-2.7-1.9-4.8-1.9
							c-3.9,0-7,3.2-7,7.1c0,3.9,3.1,7.1,7,7.1c2.6,0,4-1,4.9-2c0.8-0.8,1.3-1.9,1.5-3.4h-6.4v-2.7h9c0.1,0.5,0.1,1.1,0.1,1.7
							c0,2-0.5,4.5-2.3,6.3c-1.7,1.8-3.9,2.7-6.8,2.7C554.1,210.9,549.5,206.5,549.5,201.1z"/>
						<path class="st0" d="M575.9,198.3c-3.5,0-6.3,2.7-6.3,6.3c0,3.6,2.8,6.3,6.3,6.3c3.5,0,6.3-2.7,6.3-6.3
							C582.3,201,579.4,198.3,575.9,198.3z M575.9,208.4c-1.9,0-3.6-1.6-3.6-3.8c0-2.3,1.6-3.8,3.6-3.8c1.9,0,3.6,1.6,3.6,3.8
							C579.5,206.9,577.8,208.4,575.9,208.4z"/>
						<path class="st0" d="M589.7,198.3c-3.5,0-6.3,2.7-6.3,6.3c0,3.6,2.8,6.3,6.3,6.3c3.5,0,6.3-2.7,6.3-6.3
							C596.1,201,593.2,198.3,589.7,198.3z M589.7,208.4c-1.9,0-3.6-1.6-3.6-3.8c0-2.3,1.6-3.8,3.6-3.8c1.9,0,3.6,1.6,3.6,3.8
							C593.3,206.9,591.7,208.4,589.7,208.4z"/>
						<path class="st0" d="M606.7,198.7v1h-0.1c-0.6-0.7-1.8-1.4-3.3-1.4c-3.2,0-6,2.8-6,6.3c0,3.5,2.9,6.3,6,6.3
							c1.5,0,2.7-0.7,3.3-1.4h0.1v0.9c0,2.4-1.3,3.7-3.4,3.7c-1.7,0-2.7-1.2-3.2-2.2l-2.4,1c0.7,1.7,2.5,3.7,5.6,3.7
							c3.3,0,6-1.9,6-6.6v-11.3H606.7z M603.5,208.4c-1.9,0-3.5-1.6-3.5-3.8c0-2.2,1.6-3.8,3.5-3.8c1.9,0,3.4,1.6,3.4,3.8
							C606.9,206.8,605.4,208.4,603.5,208.4z"/>
						<rect x="611.2" y="192" class="st0" width="2.8" height="18.6"/>
						<path class="st0" d="M621.6,208.4c-1.4,0-2.4-0.6-3.1-1.9l8.4-3.5l-0.3-0.7c-0.5-1.4-2.1-4-5.4-4c-3.3,0-6,2.6-6,6.3
							c0,3.5,2.7,6.3,6.3,6.3c2.9,0,4.6-1.8,5.3-2.8l-2.2-1.4C624,207.8,623,208.4,621.6,208.4z M621.4,200.7c1.1,0,2,0.5,2.3,1.3
							l-5.6,2.3C618,202,620,200.7,621.4,200.7z"/>
					</g>
				</g>
			</g>
		</g>
	</g>
	<rect x="147.3" y="52.9" class="st1" width="701" height="46"/>
	<text transform="matrix(1 0 0 1 147.3083 86.6645)" class="st0 st2 st3 st4">cochabamba consciencia verde</text>
	<g>
		<g>
			<g>
				<polygon class="st0" points="1054.1,123.3 1067.8,79.2 1039.2,57.2 965,129.9 1044.7,129.9 1054,123.5 				"/>
				<polygon class="st0" points="1146,57.2 1117.3,79.2 1131.1,123.5 1140.5,129.9 1220.1,129.9 				"/>
			</g>
			<g>
				<polygon class="st0" points="1132.6,32.2 1102.4,32.1 1092.6,3.1 1082.8,32.1 1052.5,32.2 1076.7,50.8 1067.8,79.3 1092.6,62.3
					1117.3,79.3 1108.5,50.8 				"/>
				<polygon class="st0" points="1092.7,97.2 1092.6,97.2 1044.7,129.9 1140.5,129.9 				"/>
			</g>
		</g>
		<g>
			<path class="st0" d="M935.4,165.8v-4.6h7.8v-10l5.8-2.5v12.5h9.8v4.6H949V197c0,6.5,0.7,8,5.3,8c1.9,0,3.3-0.1,4.5-0.3v5
				c-1.7,0.2-3.7,0.3-5.5,0.3c-7.8,0-10.1-3.5-10.1-9.4v-34.8H935.4z"/>
			<path class="st0" d="M971,186.7v3.8c0,6.7,1.8,15.7,11,15.7c7.2,0,10.8-4.6,10.7-11.2h6.1c-0.7,11.8-7,15.8-16.8,15.8
				c-8.4,0-16.8-3.4-16.8-18.1v-12c0-14.1,5.9-20.5,16.8-20.5c16.8,0,16.8,12,16.8,26.5H971z M993,182.1c0-10.8-1.7-17.3-11-17.3
				c-9.3,0-11,6.5-11,17.3H993z"/>
			<path class="st0" d="M1031,175.1c0.3-6.1-1.9-10.3-8.6-10.3c-3.6,0-6.6,2-7.8,5.6c-0.8,2.2-1.4,8.9-1.4,15.3c0,8.8,0,20.4,9,20.4
				c7.6,0,8.6-4.8,8.9-10.7h5.8c0.5,13.1-8.8,15.3-13.3,15.3c-16.5,0-16.5-13-16.5-25.1c0-4.8,0.2-12.4,1.4-16.1
				c2.5-6.9,8-9.4,14.7-9.4c8.4,0,14.1,4.7,13.6,14.9H1031z"/>
			<path class="st0" d="M1046.8,209.8v-69.6h5.8v26.9h0.2c2.8-4,6.6-6.9,11.8-6.9c12.1,0,13.3,9,13.3,15.3v34.3h-5.8v-34
				c0-5.7-2.2-11-9-11c-5.2,0-10.5,3.6-10.5,14.5v30.6H1046.8z"/>
			<path class="st0" d="M1102.5,210.8c-10.5,0-14.7-5.1-14.6-15.4h5.9c0,6.7,1.5,11.1,9,11.1c5.6,0,8.3-3.2,8.3-8.6
				c0-12.7-21.9-9.4-21.9-25.5c0-9,6.2-12.1,14.7-12.1c9.6,0,12.7,6.7,12.7,14.1h-5.7c-0.3-6.2-1.9-9.4-8.5-9.4
				c-4.1,0-7.4,2.7-7.4,7c0,12.1,21.9,8.9,21.9,25.2C1116.9,206.2,1111.6,210.8,1102.5,210.8z"/>
			<path class="st0" d="M1122.8,165.8v-4.6h7.8v-10l5.8-2.5v12.5h9.8v4.6h-9.8V197c0,6.5,0.7,8,5.3,8c1.9,0,3.3-0.1,4.5-0.3v5
				c-1.7,0.2-3.7,0.3-5.5,0.3c-7.8,0-10.1-3.5-10.1-9.4v-34.8H1122.8z"/>
			<path class="st0" d="M1179.1,203.9h-0.2c-3.1,4.6-7.8,6.9-13.8,6.9c-8.7,0-13.4-5.9-13.4-14.4c0-17.1,17.2-15.3,27-16.1v-4
				c0-7.1-2.1-11.5-9.8-11.5c-5.3,0-9.5,2.6-9.5,8.4h-6.2c0.5-9.3,7.7-13,16.2-13c4.9,0,15.1,0.5,15.1,12.9v24.5
				c0,3.5,0,6.6,0.6,12.2h-6V203.9z M1178.7,185c-8.3,0.3-20.8-0.7-20.8,11.2c0,5.5,2.8,10,8.8,10c6.7,0,12-6,12-12.3V185z"/>
			<path class="st0" d="M1201.9,167.7h0.2c2.4-4.6,7.5-7.5,13.4-7.5v5.9c-8.2-0.7-13.6,4.2-13.6,12.4v31.3h-5.8v-48.7h5.8V167.7z"/>
			<path class="st0" d="M1235,210.8c-10.5,0-14.7-5.1-14.6-15.4h5.9c0,6.7,1.5,11.1,9,11.1c5.6,0,8.3-3.2,8.3-8.6
				c0-12.7-21.9-9.4-21.9-25.5c0-9,6.2-12.1,14.7-12.1c9.6,0,12.7,6.7,12.7,14.1h-5.7c-0.3-6.2-1.9-9.4-8.5-9.4
				c-4.1,0-7.4,2.7-7.4,7c0,12.1,21.9,8.9,21.9,25.2C1249.4,206.2,1244.1,210.8,1235,210.8z"/>
		</g>
		<g>
			<path class="st0" d="M1249.8,160.3c0-0.9,0.2-1.8,0.7-2.6c0.4-0.8,1-1.4,1.8-1.9c0.8-0.5,1.6-0.7,2.5-0.7c0.9,0,1.7,0.2,2.5,0.7
				c0.8,0.5,1.4,1.1,1.8,1.9c0.4,0.8,0.7,1.7,0.7,2.6c0,0.9-0.2,1.8-0.6,2.6c-0.4,0.8-1,1.4-1.8,1.9c-0.8,0.5-1.6,0.7-2.5,0.7
				c-0.9,0-1.8-0.2-2.5-0.7c-0.8-0.5-1.4-1.1-1.8-1.9C1250,162.1,1249.8,161.3,1249.8,160.3z M1250.6,160.3c0,0.8,0.2,1.5,0.6,2.2
				c0.4,0.7,0.9,1.2,1.5,1.6c0.6,0.4,1.3,0.6,2.1,0.6c0.8,0,1.5-0.2,2.1-0.6c0.6-0.4,1.2-0.9,1.5-1.6c0.4-0.7,0.6-1.4,0.6-2.2
				c0-0.8-0.2-1.5-0.6-2.2c-0.4-0.7-0.9-1.2-1.5-1.6c-0.6-0.4-1.3-0.6-2.1-0.6c-0.7,0-1.4,0.2-2.1,0.6c-0.6,0.4-1.2,0.9-1.5,1.6
				C1250.8,158.8,1250.6,159.5,1250.6,160.3z M1253.7,160.9v2.4h-1v-6h1.9c0.7,0,1.3,0.2,1.7,0.5c0.4,0.3,0.6,0.8,0.6,1.3
				c0,0.6-0.3,1-0.9,1.3c0.6,0.2,0.9,0.7,0.9,1.4v0.4c0,0.4,0,0.7,0.1,0.9v0.1h-1c-0.1-0.2-0.1-0.5-0.1-0.9s0-0.7,0-0.8
				c-0.1-0.4-0.4-0.7-0.9-0.7H1253.7z M1253.7,160h1.1c0.3,0,0.6-0.1,0.8-0.2c0.2-0.2,0.3-0.4,0.3-0.6c0-0.3-0.1-0.6-0.3-0.7
				c-0.2-0.1-0.5-0.2-1-0.2h-1V160z"/>
		</g>
	</g>
	<g>
		<rect x="884.4" y="32.4" class="st0" width="1" height="183.5"/>
	</g>
	<g>
		<g>
			<g>
				<g>
					<path class="st0" d="M95.3,58.9c0-1.4-10.9-2.9-24.3-2.9c-13.4,0-24.3,1.5-24.3,2.9c0,1.4,10.9,2.9,24.3,2.9
						C84.5,61.8,95.3,60.3,95.3,58.9z"/>
				</g>
				<g>
					<circle class="st0" cx="60.5" cy="13.9" r="13.9"/>
				</g>
				<g>
					<circle class="st0" cx="82.2" cy="33.2" r="9.9"/>
				</g>
				<g>
					<path class="st0" d="M142.1,193L98.9,86.9l12.4-32.7c0.3-0.8,0.3-1.7-0.1-2.5c-0.4-0.8-1.1-1.4-1.9-1.6
						c-0.7-0.2-16.3-5.1-38.1-5.1C70,45,69,45,68,45c0.4-0.9,0.6-1.9,0.6-3c0-4.3-3.5-7.9-7.9-7.9c-4.3,0-7.9,3.5-7.9,7.9
						c0,1.4,0.4,2.8,1.1,3.9c-12.4,1.4-20.4,3.9-20.9,4.1c-0.8,0.3-1.5,0.9-1.9,1.6c-0.4,0.8-0.4,1.7-0.1,2.5L43.6,87L0.2,193
						c-0.3,0.8-0.2,1.5-0.2,1.5c0,3.6,4.5,4.3,8,4.8c3.5,0.5,8.5,1,14.8,1.4c12.9,0.8,30,1.3,48.3,1.3c18.2,0,35.4-0.5,48.3-1.3
						c6.3-0.4,11.3-0.9,14.8-1.4c3.6-0.5,8-1.2,8-4.8C142.3,194.5,142.3,193.7,142.1,193z M71.1,195.7c-35.1,0-57.1-1.6-64-2.9
						L50,88.3c0.3-0.7,0.3-1.6,0-2.3L38.2,55.2c5.6-1.4,17.8-3.9,32.9-3.9c15.1,0,27.4,2.5,33,3.9L92.5,85.8c-0.3,0.7-0.3,1.6,0,2.3
						l42.6,104.7C128.3,194.1,106.3,195.7,71.1,195.7z"/>
				</g>
				<path class="st0" d="M125.7,187.4L114,158.7v-5.7c0-4.8-1.7-9.3-5.1-12.6c-0.9-0.9-1.8-1.7-2.8-2.4c0,0-20.1-50.4-20.1-50.4
					c-0.1-0.1-0.1-0.4-0.3-0.4c-4,0.4-9.1,0.6-14.5,0.6c-5.4,0-10.5-0.3-14.5-0.6c-0.2,0-0.3,0.2-0.4,0.4c0,0-15,37.5-15,37.5
					c-4.6,3.2-7.3,8.6-7.3,14.6v4.8l-17.3,43.1c2.9,1.1,20.6,1.9,23.2,1.6v-49.5c0-6.5,5.1-11.8,11.6-11.8c6.5,0,11.5,5.3,11.5,11.8
					v18.3c-5.9,2.6-10.2,8.9-10.2,16.2v15.7h5.9V174c0-6.2,5.1-11.2,11.3-11.2c6.2,0,11.2,5,11.2,11.2v15.7h6.4V174
					c0-3.5-1.1-6.8-2.9-9.5c0-3.9,0-12,0-11.9c0.4-6.1,5.5-11,11.7-11c6.2,0,11.3,4.8,11.7,10.8c0-0.1,0,35.8,0,36.6
					C109.6,188.9,123.1,188.4,125.7,187.4z M86,138.5c-1.9,1.2-3.4,2.9-4.7,4.8c-1.2,1.8-2,3.8-2.5,6c-0.3,1.2-0.4,2.5-0.4,3.7v5.7
					c-2.7-1.3-5.5-2.1-8.5-2.1c-0.3,0-1.1,0-1.1,0v-17c0-4.6-1.6-9.5-5.4-12.7v-8.7c0-6.5,6.1-12.2,12.6-12.2s12.6,5.7,12.6,12.2
					v18.7v0.2v0C87.8,137.4,86.9,137.9,86,138.5z"/>
				<g>
					<circle class="st0" cx="46.3" cy="142.6" r="3.1"/>
				</g>
				<g>
					<circle class="st0" cx="56.3" cy="142.6" r="3.1"/>
				</g>
				<g>
					<circle class="st0" cx="71.3" cy="119.1" r="3.1"/>
				</g>
				<g>
					<circle class="st0" cx="81.3" cy="119.1" r="3.1"/>
				</g>
				<g>
					<circle class="st0" cx="91.6" cy="156" r="3.1"/>
				</g>
				<g>
					<circle class="st0" cx="101.6" cy="156" r="3.1"/>
				</g>
				<g>
					<circle class="st0" cx="65.4" cy="173.5" r="2.9"/>
				</g>
				<g>
					<circle class="st0" cx="74.8" cy="173.4" r="2.9"/>
				</g>
			</g>
			<g>
				<g>
					<path class="st0" d="M76.4,131.2c-1.9,0-3.9-0.5-5.6-1.6c-0.8-0.5-1.1-1.6-0.6-2.4c0.5-0.8,1.6-1.1,2.4-0.6
						c2.3,1.4,5.2,1.4,7.4,0c0.8-0.5,1.9-0.3,2.4,0.6c0.5,0.8,0.3,1.9-0.6,2.4C80.3,130.7,78.3,131.2,76.4,131.2z"/>
				</g>
			</g>
			<g>
				<g>
					<path class="st0" d="M51.4,154.9c-1.9,0-3.9-0.5-5.6-1.6c-0.8-0.5-1.1-1.6-0.6-2.4c0.5-0.8,1.6-1.1,2.4-0.6
						c2.3,1.4,5.2,1.4,7.4,0c0.8-0.5,1.9-0.3,2.4,0.6c0.5,0.8,0.3,1.9-0.6,2.4C55.3,154.4,53.4,154.9,51.4,154.9z"/>
				</g>
			</g>
			<g>
				<g>
					<path class="st0" d="M70.1,185.2c-1.9,0-3.9-0.5-5.6-1.6c-0.8-0.5-1.1-1.6-0.6-2.4c0.5-0.8,1.6-1.1,2.4-0.6
						c2.3,1.4,5.2,1.4,7.4,0c0.8-0.5,1.9-0.3,2.4,0.6c0.5,0.8,0.3,1.9-0.6,2.4C74,184.7,72.1,185.2,70.1,185.2z"/>
				</g>
			</g>
			<g>
				<g>
					<path class="st0" d="M96.6,168.4c-1.9,0-3.9-0.5-5.6-1.6c-0.8-0.5-1.1-1.6-0.6-2.4c0.5-0.8,1.6-1.1,2.4-0.6
						c2.3,1.4,5.2,1.4,7.4,0c0.8-0.5,1.9-0.3,2.4,0.6c0.5,0.8,0.3,1.9-0.6,2.4C100.5,167.9,98.6,168.4,96.6,168.4z"/>
				</g>
			</g>
		</g>
	</g>
</g>
</svg>
